<?xml version="1.0" standalone="no"?>
<!DOCTYPE svg PUBLIC "-//W3C//DTD SVG 20010904//EN"
 "http://www.w3.org/TR/2001/REC-SVG-20010904/DTD/svg10.dtd">
<svg version="1.0" xmlns="http://www.w3.org/2000/svg"
 width="1725.000000pt" height="1725.000000pt" viewBox="0 0 1725.000000 1725.000000"
 preserveAspectRatio="xMidYMid meet">
<metadata>
Created by potrace 1.14, written by Peter Selinger 2001-2017
</metadata>
<g transform="translate(0.000000,1725.000000) scale(0.100000,-0.100000)"
fill="#000000" stroke="none">
<path d="M8278 17245 c-2 -1 -69 -6 -150 -9 -81 -4 -158 -9 -170 -11 -13 -2
-59 -6 -103 -10 -44 -3 -93 -8 -110 -9 -16 -2 -60 -6 -96 -10 -36 -4 -76 -8
-90 -11 -13 -2 -51 -6 -84 -10 -33 -4 -127 -18 -210 -32 -82 -14 -159 -26
-170 -28 -212 -30 -737 -160 -1070 -264 -55 -18 -107 -34 -115 -36 -90 -24
-519 -188 -705 -270 -16 -7 -79 -34 -140 -61 -153 -67 -626 -308 -695 -354 -8
-6 -22 -13 -30 -17 -81 -37 -566 -350 -776 -501 -133 -96 -486 -374 -546 -431
-9 -9 -23 -21 -30 -26 -7 -6 -60 -53 -118 -105 -58 -52 -110 -99 -116 -105 -7
-5 -70 -67 -140 -136 -229 -225 -373 -379 -574 -614 -135 -159 -122 -143 -228
-280 -51 -66 -99 -127 -106 -136 -15 -18 -215 -301 -236 -334 -8 -13 -49 -75
-90 -139 -195 -302 -329 -537 -484 -851 -88 -178 -166 -342 -166 -350 0 -2
-14 -33 -30 -69 -75 -162 -265 -679 -320 -871 -6 -22 -18 -60 -25 -85 -28 -93
-100 -364 -110 -410 -2 -8 -12 -51 -24 -95 -11 -44 -23 -96 -26 -115 -3 -19
-8 -42 -10 -50 -2 -8 -7 -28 -10 -45 -5 -29 -8 -48 -20 -105 -2 -14 -7 -41
-10 -60 -4 -19 -10 -53 -15 -75 -5 -22 -11 -58 -14 -80 -4 -23 -8 -50 -10 -60
-2 -11 -7 -45 -11 -75 -4 -30 -9 -62 -10 -70 -4 -22 -17 -121 -20 -150 -2 -14
-6 -56 -10 -95 -4 -38 -9 -78 -11 -88 -2 -11 -6 -60 -9 -111 -3 -50 -8 -100
-10 -111 -19 -95 -27 -861 -11 -1135 12 -212 22 -338 31 -400 2 -14 6 -54 10
-90 3 -36 8 -78 10 -95 3 -16 7 -50 10 -75 12 -109 34 -245 65 -415 11 -60 23
-122 25 -138 3 -15 12 -60 21 -100 9 -39 24 -112 35 -160 10 -49 21 -92 23
-96 3 -4 7 -18 9 -32 43 -225 276 -934 407 -1236 6 -13 14 -33 19 -45 216
-517 549 -1118 880 -1588 137 -196 389 -521 514 -663 29 -33 60 -69 70 -81
133 -155 526 -554 697 -707 114 -103 420 -357 546 -455 222 -171 609 -433 819
-555 696 -402 1285 -660 1963 -859 75 -22 151 -45 167 -50 96 -30 499 -124
625 -145 19 -3 42 -8 50 -10 8 -2 38 -7 65 -11 28 -3 53 -8 56 -10 4 -2 24 -6
45 -10 22 -3 53 -8 69 -11 17 -3 44 -6 62 -8 36 -4 99 -14 128 -19 11 -2 49
-7 85 -11 36 -4 74 -9 85 -11 11 -2 47 -6 80 -9 33 -3 76 -7 95 -10 32 -4 66
-7 215 -20 142 -13 331 -18 620 -18 369 -1 578 7 775 29 30 3 75 8 99 9 53 4
160 16 181 20 8 1 42 6 75 9 78 9 348 52 450 71 44 9 95 18 114 21 19 3 45 10
58 15 13 5 23 7 23 4 0 -2 14 0 32 5 17 5 47 12 67 15 36 5 435 108 541 140
30 9 62 17 71 19 50 12 394 129 562 192 320 120 535 215 867 383 484 245 977
558 1395 886 50 38 97 75 105 82 245 192 676 594 930 869 495 536 911 1122
1272 1789 68 126 278 557 278 570 0 3 11 28 24 57 22 49 55 124 76 173 4 11
18 47 30 80 13 33 29 74 36 90 59 132 250 728 299 932 3 10 14 54 25 98 22 87
105 485 114 550 4 22 13 78 21 125 8 47 17 108 20 135 3 28 8 57 10 65 2 8 7
42 10 75 3 33 8 71 10 85 3 14 7 50 10 80 3 30 7 71 10 90 2 19 7 75 11 125 4
49 8 105 9 125 24 306 24 1078 0 1232 -2 13 -6 59 -10 103 -3 44 -7 94 -10
110 -2 17 -6 62 -10 100 -4 39 -8 81 -10 95 -2 14 -6 50 -10 80 -4 30 -8 66
-10 80 -4 26 -30 195 -40 265 -3 22 -8 47 -10 55 -2 8 -7 31 -10 50 -27 162
-156 721 -185 800 -5 14 -23 72 -40 130 -241 796 -587 1536 -1046 2237 -158
241 -407 578 -576 779 -70 83 -158 185 -194 224 -22 25 -70 76 -105 115 -80
87 -382 389 -470 470 -179 164 -296 266 -394 345 -44 36 -82 67 -85 70 -20 22
-304 233 -498 370 -271 192 -679 433 -1037 613 -120 60 -391 187 -400 187 -2
0 -32 13 -67 29 -35 16 -117 50 -183 76 -66 26 -133 53 -150 60 -113 47 -467
164 -683 225 -247 70 -618 158 -782 184 -19 3 -44 7 -55 10 -11 2 -40 7 -65
11 -25 4 -52 8 -60 10 -8 1 -37 6 -63 9 -27 4 -56 9 -65 11 -10 1 -39 6 -67 9
-27 4 -57 9 -65 11 -8 2 -46 7 -85 10 -38 4 -72 8 -75 10 -3 1 -47 6 -98 9
-51 4 -101 9 -110 11 -9 1 -69 6 -132 10 -63 4 -135 10 -160 12 -52 4 -827 12
-832 8z m-90 -5838 l2 -2347 -2347 2 -2348 3 -1 2335 c0 1284 3 2340 7 2345 5
7 794 10 2346 10 l2338 0 3 -2348z m5562 1 l0 -2348 -2345 0 c-1869 0 -2345 3
-2346 13 -1 16 -1 4647 0 4667 1 13 268 15 2346 15 l2345 0 0 -2347z m-5
-5563 l0 -2347 -2339 0 c-1286 1 -2341 3 -2344 6 -4 4 -7 4640 -3 4678 1 4 11
8 24 10 12 2 1066 3 2342 2 l2320 -1 0 -2348z m-7640 2334 c33 -5 80 -11 105
-15 47 -6 172 -34 275 -60 109 -29 298 -105 430 -174 237 -123 398 -241 585
-430 199 -200 339 -396 459 -645 80 -163 164 -412 185 -545 35 -219 40 -270
40 -445 1 -197 -5 -281 -29 -419 -42 -236 -102 -419 -206 -631 -120 -246 -251
-428 -448 -625 -138 -138 -228 -212 -375 -309 -220 -145 -571 -292 -776 -326
-19 -3 -51 -10 -70 -15 -19 -4 -55 -11 -80 -14 -25 -4 -70 -10 -100 -14 -74
-9 -427 -9 -515 1 -74 8 -96 12 -187 28 -64 11 -302 74 -333 88 -11 5 -40 17
-65 26 -189 70 -438 211 -599 338 -431 340 -737 821 -847 1332 -11 50 -25 123
-30 155 -3 19 -7 46 -9 58 -27 162 -22 502 9 677 63 354 177 649 349 910 298
450 730 782 1233 948 107 36 253 73 323 83 20 2 45 6 56 9 11 2 47 7 80 10 33
4 61 9 63 10 8 7 423 2 477 -6z"/>
</g>
</svg>
